HIERARCHY
ROOT Hips
{
	OFFSET	0	0	0
	CHANNELS 6  Xposition Yposition Zposition Xrotation Yrotation Zrotation
	JOINT Spine
	{
		OFFSET	0	6.86795	1.37906
		CHANNELS 3  Xrotation Yrotation Zrotation
		JOINT Spine1
		{
			OFFSET	0	11.7606	-2.1001
			CHANNELS 3  Xrotation Yrotation Zrotation
			JOINT Spine2
			{
				OFFSET	0	8.91491	0.955545
				CHANNELS 3  Xrotation Yrotation Zrotation
				JOINT Spine3
				{
					OFFSET	0	10.6685	3.17115
					CHANNELS 3  Xrotation Yrotation Zrotation
					JOINT Spine4
					{
						OFFSET	0	15.7927	-1.61708
						CHANNELS 3  Xrotation Yrotation Zrotation
						JOINT Neck
						{
							OFFSET	0	7.53935	-5.28175
							CHANNELS 3  Xrotation Yrotation Zrotation
							JOINT Head
							{
								OFFSET	0	9.05142	-2.70913
								CHANNELS 3  Xrotation Yrotation Zrotation
								End Site
								{
									OFFSET	0	18.8799	-0.913543
								}
							}
						}
					}
					JOINT LeftShoulder
					{
						OFFSET	-4.53621	19.1949	-9.05142
						CHANNELS 3  Xrotation Yrotation Zrotation
						JOINT LeftArm
						{
							OFFSET	-9.8955	-2.70912	3.47568
							CHANNELS 3  Xrotation Yrotation Zrotation
							JOINT LeftForeArm
							{
								OFFSET	-33.3495	-1.52213	2.38045
								CHANNELS 3  Xrotation Yrotation Zrotation
								JOINT LeftHand
								{
									OFFSET	-27.054	-1.86958	1.93108
									CHANNELS 3  Xrotation Yrotation Zrotation
									End Site
									{
										OFFSET	-9.87335	-0.682306	0.704704
									}
								}
							}
						}
					}
					JOINT RightShoulder
					{
						OFFSET	4.53621	19.1949	-9.05142
						CHANNELS 3  Xrotation Yrotation Zrotation
						JOINT RightArm
						{
							OFFSET	9.8955	-2.70912	3.47568
							CHANNELS 3  Xrotation Yrotation Zrotation
							JOINT RightForeArm
							{
								OFFSET	33.3495	-1.52213	2.38045
								CHANNELS 3  Xrotation Yrotation Zrotation
								JOINT RightHand
								{
									OFFSET	27.054	-1.86958	1.93108
									CHANNELS 3  Xrotation Yrotation Zrotation
									End Site
									{
										OFFSET	9.87335	-0.682306	0.704704
									}
								}
							}
						}
					}
				}
			}
		}
	}
	JOINT LeftUpLeg
	{
		OFFSET	-9.35843	-3.43397	-0.689532
		CHANNELS 3  Xrotation Yrotation Zrotation
		JOINT LeftLeg
		{
			OFFSET	-2.06148	-40.3938	-0.631444
			CHANNELS 3  Xrotation Yrotation Zrotation
			JOINT LeftFoot
			{
				OFFSET	-2.01493	-37.1416	3.19418
				CHANNELS 3  Xrotation Yrotation Zrotation
				JOINT LeftToeBase
				{
					OFFSET	0	-4.59973	-12.2169
					CHANNELS 3  Xrotation Yrotation Zrotation
					End Site
					{
						OFFSET	0	-1.83989	-7.35956
					}
				}
			}
		}
	}
	JOINT RightUpLeg
	{
		OFFSET	9.35843	-3.43397	-0.689532
		CHANNELS 3  Xrotation Yrotation Zrotation
		JOINT RightLeg
		{
			OFFSET	2.06148	-40.3938	-0.631444
			CHANNELS 3  Xrotation Yrotation Zrotation
			JOINT RightFoot
			{
				OFFSET	2.01493	-37.1416	3.19418
				CHANNELS 3  Xrotation Yrotation Zrotation
				JOINT RightToeBase
				{
					OFFSET	0	-4.59973	-12.2169
					CHANNELS 3  Xrotation Yrotation Zrotation
					End Site
					{
						OFFSET	0	-1.83989	-7.35956
					}
				}
			}
		}
	}
}
MOTION
Frames: 16
Frame Time: 0.020408
 -110.976 85.9952 22.7306 4.46545 -137.963 4.43218 3.68087e-05 -0.0038896 0.542196 171.627 -179.992 -179.096 171.217 -179.977 -179.096 173.187 -179.996 -179.458 0.0813472 0.0002566 0.180732 8.73099 11.0745 0.0730276 2.57277 16.9681 1.04929 176.824 171.388 174.404 11.0741 3.11198 63.4661 26.6666 -96.7583 24.8639 -0 -25.2337 8.53835 177.999 167.265 -175.791 26.3203 1.08992 -59.0451 165.473 135.652 -167.872 -0 7.81572 -7.94389 20.3894 20.9173 -17.9115 171.845 -176.763 -179.392 175.298 179.984 -171.814 166.925 180 -180 23.7066 4.24092 2.87443 161.454 -164.726 -179.801 176.193 179.974 169.25 2.50687 0 0
 -111.051 84.9773 22.538 4.34154 -137.592 3.86981 180 179.998 -179.361 171.337 179.996 -178.935 170.862 179.988 -178.935 172.801 179.998 -179.361 0.435378 0.00161847 0.212986 9.92465 10.5601 0.659986 2.94893 15.1163 1.10126 177.372 171.901 175.343 12.6709 3.64356 62.142 35.3462 -95.8267 33.5987 -0 -24.8675 8.39568 178.79 165.994 -177.442 28.5569 0.491999 -56.952 165.419 136.529 -168.012 -0 7.76326 -7.50604 21.6507 21.092 -19.6563 166.466 -177.444 -179.667 179.312 179.95 -171.542 166.924 180 -180 25.0968 5.24517 3.49672 158.804 -164.778 -179.793 0.762902 0.0204034 -10.8298 2.5069 0 0
 -110.931 83.9912 22.3172 3.71771 -137.45 3.20127 180 179.999 -179.297 170.917 179.999 -178.828 170.403 179.996 -178.828 172.403 179.999 -179.297 0.568587 0.00232637 0.234416 10.5692 9.53235 1.27519 3.15686 12.578 1.14752 177.689 172.79 175.864 14.5092 3.87493 60.4534 54.4397 -94.5816 52.7401 -0 -24.2014 8.20268 179.576 164.675 -179.099 31.3292 -0.0538783 -54.4114 165.374 138.195 -168.345 -0 7.57348 -7.19356 23.1309 21.0968 -21.2263 159.819 -178.171 -179.951 4.29035 0.138668 8.84292 166.925 180 -180 26.5179 6.10459 3.65829 154.591 -164.876 -179.844 4.79168 0.00267911 -11.1068 2.50282 0 0
 -110.357 82.725 21.8322 1.97301 -137.377 1.60141 180 179.996 -179.13 170.533 179.992 -178.55 169.92 179.977 -178.55 171.849 179.996 -179.13 1.13716 0.00575447 0.289899 12.4385 8.08098 1.50132 3.73093 9.66967 1.04847 178.177 174.487 176.673 16.315 3.46807 58.7806 94.5329 -94.1706 92.841 -0 -23.5104 8.14681 179.951 162.655 -179.896 33.7261 -0.118415 -51.7738 165.495 141.127 -169.159 -0 7.04503 -7.32178 24.0689 20.9923 -22.6364 152.186 -178.343 -179.897 10.1133 0.051045 9.37232 166.923 180 -180 27.6405 7.0158 4.35356 148.489 -164.748 -179.626 8.52877 -0.0251012 -11.3946 2.49512 0 0
 -109.918 81.3997 21.3525 0.619129 -136.917 0.441398 2.74868e-05 -0.00163374 0.963876 170.169 -179.997 -178.394 169.507 -179.99 -178.394 171.458 -179.998 -179.036 1.36102 0.00763141 0.321201 13.3336 6.28746 1.48264 4.00345 6.91359 0.892509 178.352 176.968 176.911 18.14 2.31676 57.1185 130.685 -96.1812 129.15 -0 -22.6845 8.21956 0.0275823 19.6329 -0.0593579 35.8064 0.192941 -49.6951 165.717 144.859 -170.013 -0 6.31118 -7.70968 24.8593 21.0055 -24.408 146.306 -178.237 -179.922 12.9264 0.0483152 9.8345 166.922 180 -180 29.0172 7.51512 5.03067 142.834 -164.634 -179.944 11.4648 -0.0795501 -11.4934 2.48415 0 0
 -109.843 80.4609 20.8095 179.267 -43.9334 179.472 3.78312e-05 -0.00207855 1.04271 169.952 -179.996 -178.262 169.228 -179.988 -178.262 171.128 -179.998 -178.957 1.7212 0.0104397 0.347413 14.5061 4.20735 1.33608 4.35617 3.98315 0.68902 178.092 179.585 176.332 20.4431 0.63402 55.3408 146.502 -99.406 145.171 -0 -21.7487 8.31321 179.677 158.409 -179.302 37.3653 0.465966 -47.5672 165.977 149.602 -171.166 -0 5.42586 -8.3449 24.5274 20.9756 -26.3667 141.543 -177.854 179.866 13.4663 0.100727 10.2632 166.921 180 -180 30.1812 7.8044 5.44336 138.607 -164.764 179.866 11.5533 -0.0990575 -11.446 2.47324 0 0
 -109.897 79.8517 20.4175 177.929 -44.5933 178.908 180 179.993 -178.882 169.742 179.986 -178.136 168.972 179.958 -178.136 170.854 179.993 -178.882 1.96499 0.0127818 0.372544 15.3773 1.79321 0.956953 4.61565 1.08619 0.404848 177.642 -178.187 175.374 22.4195 -0.900991 53.7669 154.887 -103.562 153.84 -0 -20.6433 8.39791 179.331 155.916 -178.55 38.8562 0.899004 -46.1171 166.179 155.025 -172.417 -0 4.36824 -9.19109 24.9515 20.7658 -27.6913 138.347 -177.449 -179.993 14.7645 0.0503709 10.725 166.921 180 -180 30.9311 7.60211 5.47792 135.213 -164.984 179.687 10.234 -0.0421076 -11.4513 2.46164 0 0
 -109.644 79.6137 19.7204 176.193 -45.1458 178.215 180 179.995 -178.844 169.592 179.989 -178.073 168.837 179.968 -178.073 170.798 179.995 -178.844 1.81292 0.0121901 0.385123 15.0912 -0.0979454 0.567353 4.52823 -0.952094 0.155147 177.022 -176.247 174.061 24.9017 -2.56408 52.1746 158.912 -107.491 158.073 -0 -19.6112 8.41873 179.021 154.325 -177.874 40.136 1.14375 -44.8969 166.279 159.233 -173.363 -0 3.68245 -9.82823 25.39 20.8923 -28.1027 136.64 -177.13 -179.861 16.4369 -0.000247742 11.1774 166.921 180 -180 31.1263 7.196 5.1597 133.412 -165.348 179.845 6.71337 -0.0705298 -11.4333 2.44947 0 0
 -109.472 79.5424 18.9404 174.415 -45.6268 177.572 180 179.992 -178.835 169.508 179.983 -178.059 168.779 179.95 -178.059 170.823 179.992 -178.835 1.59663 0.0108166 0.38805 14.5662 -1.64058 0.0622897 4.36979 -2.38146 -0.103891 176.69 -174.638 173.316 27.1339 -4.01126 51.4031 161.063 -110.833 160.462 -0 -18.6784 8.34721 178.753 153.528 -177.29 41.3792 1.50278 -43.6464 166.261 161.873 -173.872 -0 3.35368 -10.402 25.6266 21.0554 -28.3694 135.43 -176.755 179.974 17.4965 -0.0361522 11.4825 166.922 180 -180 30.8204 6.91174 4.8595 132.238 -165.892 -179.958 2.98196 -0.0414376 -11.4487 2.43728 0 0
 -108.855 79.7152 17.8681 172.712 -45.5127 176.739 180 179.993 -178.864 169.451 179.986 -178.106 168.787 179.958 -178.106 170.977 179.993 -178.864 1.12878 0.00746173 0.378695 13.2909 -2.85559 -0.57413 3.98759 -3.27723 -0.378522 176.323 -173.722 172.522 29.3953 -5.15338 50.5483 162.229 -113.313 161.828 -0 -17.9389 8.15603 178.521 153.543 -176.787 42.3772 1.76021 -42.6628 166.247 163.174 -174.213 -0 3.41067 -10.86 25.4088 21.4523 -28.2506 134.444 -176.331 179.892 17.7218 -0.0297624 11.4907 166.922 180 -180 30.4881 6.66348 4.61609 131.162 -166.37 -179.792 179.703 179.996 168.53 2.42742 0 0
 -108.014 79.9095 16.9228 170.53 -44.8266 175.787 180 179.99 -178.891 169.42 179.98 -178.151 168.837 179.939 -178.151 171.2 179.99 -178.891 0.549862 0.00354895 0.369785 11.6657 -3.24604 -0.874324 3.50047 -3.57436 -0.498027 176.306 -174.04 172.504 31.798 -5.81351 50.2668 162.173 -113.7 161.731 -0 -17.5937 7.8626 178.465 154.272 -176.665 42.9207 1.84244 -42.0625 166.235 162.548 -174.139 -0 3.98753 -11.2327 24.9417 21.4765 -28.1756 133.453 -175.552 179.726 17.3636 0.0309825 11.4523 166.922 180 -180 29.3869 6.67858 4.79853 130.751 -166.925 -179.733 176.609 179.888 168.496 2.41841 0 0
 -107.078 80.4627 16.2049 168.259 -44.7728 174.666 180 179.996 -178.94 169.509 179.991 -178.234 169.001 179.973 -178.234 171.484 179.996 -178.94 0.0536461 0.000330715 0.35321 10.1579 -3.01768 -0.949916 3.04811 -3.27584 -0.506061 176.381 -174.966 172.705 34.2143 -6.60663 50.4216 161.125 -111.959 160.523 -0 -17.6889 7.54271 178.595 155.573 -176.951 43.2904 1.77208 -41.5893 166.251 160.589 -173.588 -0 4.91614 -11.4704 23.8788 21.4626 -28.0963 133.03 -174.474 179.653 16.0217 0.0609876 11.4369 166.921 180 -180 27.4289 6.9431 5.23561 130.82 -167.337 -179.811 173.252 179.89 168.492 2.40962 0 0
 -106.221 81.1337 15.5119 166.127 -44.5867 173.501 180 179.997 -178.964 169.621 179.993 -178.273 169.185 179.979 -178.273 171.773 179.997 -178.964 179.592 -179.998 -179.655 8.72322 -2.69254 -1.13658 2.61864 -2.66746 -0.530842 176.487 -176.402 172.996 35.6715 -7.34784 51.2088 159.148 -109.247 158.464 -0 -17.9309 7.30341 178.965 157.944 -177.761 43.672 1.63981 -41.3248 166.235 156.3 -172.473 -0 6.3826 -11.4908 22.5908 21.753 -27.9885 132.651 -173.028 179.67 14.5616 0.135647 11.4305 166.92 180 -180 25.4257 7.37233 5.55242 131.311 -167.708 -179.89 169.997 179.893 168.483 2.40194 0 0
 -104.983 81.7088 14.7263 163.741 -43.9411 172.054 180 179.996 -179.005 169.755 179.992 -178.341 169.385 179.975 -178.341 172.062 179.996 -179.005 179.171 -179.995 -179.668 7.38591 -2.46276 -1.29347 2.21829 -2.22883 -0.552782 176.707 -178.14 173.527 37.6225 -8.12338 52.066 155.01 -105.137 154.004 -0 -18.3988 6.9301 179.226 160.895 -178.337 43.6158 1.54145 -40.8991 165.987 150.233 -171.094 -0 8.21821 -11.5127 20.693 22.5284 -27.7064 131.877 -171.357 179.765 13.8358 0.13597 11.4381 166.919 180 -180 23.0798 8.26676 6.02068 131.622 -168.044 -179.99 166.769 179.917 168.498 2.39508 0 0
 -104.029 82.1721 14.159 161.692 -43.8862 170.924 180 179.992 -179.034 169.87 179.983 -178.389 169.547 179.949 -178.389 172.28 179.992 -179.034 178.881 -179.994 -179.678 6.43716 -2.29665 -1.60269 1.93571 -1.66765 -0.613312 176.487 179.254 173.249 38.4306 -8.58667 51.9919 148.232 -101.341 147.048 -0 -18.827 6.64651 179.51 163.882 -178.956 43.2298 1.24148 -40.8413 165.424 143.563 -169.19 -0 10.0446 -11.6759 19.1878 23.187 -27.5332 131.375 -169.707 179.736 13.7025 0.236983 11.3861 166.918 180 -180 20.6158 9.21504 6.17687 131.908 -168.316 179.884 164.947 179.946 168.492 2.38929 0 0
 -102.72 82.7322 13.4464 159.434 -43.2267 169.575 180 179.99 -179.057 169.991 179.981 -178.428 169.739 179.942 -178.428 172.575 179.99 -179.057 178.421 -179.991 -179.686 4.99844 -2.2118 -1.92262 1.50621 -1.27947 -0.682088 176.057 176.359 172.629 39.7155 -8.96972 51.0313 133.998 -97.6314 132.427 -0 -19.3494 6.2402 179.18 166.622 -178.272 42.1329 1.32831 -40.4612 164.597 137.415 -167.757 -0 11.8174 -11.989 17.4364 23.7993 -26.4866 130.755 -167.753 179.896 13.2899 0.00855824 11.4603 166.917 180 -180 17.5164 10.084 6.26473 132.478 -168.555 179.85 163.605 179.953 168.49 2.38408 0 0
